<svg xmlns="http://www.w3.org/2000/svg" version="1.1" xmlns:xlink="http://www.w3.org/1999/xlink" xmlns:svgjs="http://svgjs.com/svgjs" width="1440" height="559" preserveAspectRatio="none" viewBox="0 0 1440 559"><g mask="url(&quot;#SvgjsMask1003&quot;)" fill="none"><rect width="1440" height="559" x="0" y="0" fill="#0e2a47"></rect><path d="M102.29 327.35L167.25 364.85L167.25 439.85L102.29 477.35L37.34 439.85L37.34 364.85zM102.29 552.35L167.25 589.85L167.25 664.85L102.29 702.35L37.34 664.85L37.34 589.85zM232.2 552.35L297.15 589.85L297.15 664.85L232.2 702.35L167.25 664.85L167.25 589.85zM362.11 102.35L427.06 139.85L427.06 214.85L362.11 252.35L297.15 214.85L297.15 139.85zM297.15 214.85L362.11 252.35L362.11 327.35L297.15 364.85L232.2 327.35L232.2 252.35zM297.15 439.85L362.11 477.35L362.11 552.35L297.15 589.85L232.2 552.35L232.2 477.35zM362.11 552.35L427.06 589.85L427.06 664.85L362.11 702.35L297.15 664.85L297.15 589.85zM492.02 102.35L556.97 139.85L556.97 214.85L492.02 252.35L427.06 214.85L427.06 139.85zM621.92 102.35L686.88 139.85L686.88 214.85L621.92 252.35L556.97 214.85L556.97 139.85zM621.92 327.35L686.88 364.85L686.88 439.85L621.92 477.35L556.97 439.85L556.97 364.85zM751.83 102.35L816.79 139.85L816.79 214.85L751.83 252.35L686.88 214.85L686.88 139.85zM751.83 327.35L816.79 364.85L816.79 439.85L751.83 477.35L686.88 439.85L686.88 364.85zM751.83 552.35L816.79 589.85L816.79 664.85L751.83 702.35L686.88 664.85L686.88 589.85zM816.78 -10.15L881.74 27.35L881.74 102.35L816.78 139.85L751.83 102.35L751.83 27.35zM881.74 102.35L946.69 139.85L946.69 214.85L881.74 252.35L816.78 214.85L816.78 139.85zM946.69 -10.15L1011.65 27.35L1011.65 102.35L946.69 139.85L881.74 102.35L881.74 27.35zM1206.51 214.85L1271.46 252.35L1271.46 327.35L1206.51 364.85L1141.55 327.35L1141.55 252.35zM1206.51 439.85L1271.46 477.35L1271.46 552.35L1206.51 589.85L1141.55 552.35L1141.55 477.35zM1271.46 552.35L1336.41 589.85L1336.41 664.85L1271.46 702.35L1206.51 664.85L1206.51 589.85zM1336.41 -10.15L1401.37 27.35L1401.37 102.35L1336.41 139.85L1271.46 102.35L1271.46 27.35zM1401.37 102.35L1466.32 139.85L1466.32 214.85L1401.37 252.35L1336.41 214.85L1336.41 139.85zM1466.32 -10.15L1531.28 27.35L1531.28 102.35L1466.32 139.85L1401.37 102.35L1401.37 27.35zM1531.28 552.35L1596.23 589.85L1596.23 664.85L1531.28 702.35L1466.32 664.85L1466.32 589.85z" stroke="#03305d" stroke-width="2"></path><path d="M94.79 327.35 a7.5 7.5 0 1 0 15 0 a7.5 7.5 0 1 0 -15 0zM159.75 364.85 a7.5 7.5 0 1 0 15 0 a7.5 7.5 0 1 0 -15 0zM159.75 439.85 a7.5 7.5 0 1 0 15 0 a7.5 7.5 0 1 0 -15 0zM94.79 477.35 a7.5 7.5 0 1 0 15 0 a7.5 7.5 0 1 0 -15 0zM29.84 439.85 a7.5 7.5 0 1 0 15 0 a7.5 7.5 0 1 0 -15 0zM29.84 364.85 a7.5 7.5 0 1 0 15 0 a7.5 7.5 0 1 0 -15 0zM94.79 552.35 a7.5 7.5 0 1 0 15 0 a7.5 7.5 0 1 0 -15 0zM159.75 589.85 a7.5 7.5 0 1 0 15 0 a7.5 7.5 0 1 0 -15 0zM159.75 664.85 a7.5 7.5 0 1 0 15 0 a7.5 7.5 0 1 0 -15 0zM94.79 702.35 a7.5 7.5 0 1 0 15 0 a7.5 7.5 0 1 0 -15 0zM29.84 664.85 a7.5 7.5 0 1 0 15 0 a7.5 7.5 0 1 0 -15 0zM29.84 589.85 a7.5 7.5 0 1 0 15 0 a7.5 7.5 0 1 0 -15 0zM224.7 552.35 a7.5 7.5 0 1 0 15 0 a7.5 7.5 0 1 0 -15 0zM289.65 589.85 a7.5 7.5 0 1 0 15 0 a7.5 7.5 0 1 0 -15 0zM289.65 664.85 a7.5 7.5 0 1 0 15 0 a7.5 7.5 0 1 0 -15 0zM224.7 702.35 a7.5 7.5 0 1 0 15 0 a7.5 7.5 0 1 0 -15 0zM354.61 102.35 a7.5 7.5 0 1 0 15 0 a7.5 7.5 0 1 0 -15 0zM419.56 139.85 a7.5 7.5 0 1 0 15 0 a7.5 7.5 0 1 0 -15 0zM419.56 214.85 a7.5 7.5 0 1 0 15 0 a7.5 7.5 0 1 0 -15 0zM354.61 252.35 a7.5 7.5 0 1 0 15 0 a7.5 7.5 0 1 0 -15 0zM289.65 214.85 a7.5 7.5 0 1 0 15 0 a7.5 7.5 0 1 0 -15 0zM289.65 139.85 a7.5 7.5 0 1 0 15 0 a7.5 7.5 0 1 0 -15 0zM354.61 327.35 a7.5 7.5 0 1 0 15 0 a7.5 7.5 0 1 0 -15 0zM289.65 364.85 a7.5 7.5 0 1 0 15 0 a7.5 7.5 0 1 0 -15 0zM224.7 327.35 a7.5 7.5 0 1 0 15 0 a7.5 7.5 0 1 0 -15 0zM224.7 252.35 a7.5 7.5 0 1 0 15 0 a7.5 7.5 0 1 0 -15 0zM289.65 439.85 a7.5 7.5 0 1 0 15 0 a7.5 7.5 0 1 0 -15 0zM354.61 477.35 a7.5 7.5 0 1 0 15 0 a7.5 7.5 0 1 0 -15 0zM354.61 552.35 a7.5 7.5 0 1 0 15 0 a7.5 7.5 0 1 0 -15 0zM224.7 477.35 a7.5 7.5 0 1 0 15 0 a7.5 7.5 0 1 0 -15 0zM419.56 589.85 a7.5 7.5 0 1 0 15 0 a7.5 7.5 0 1 0 -15 0zM419.56 664.85 a7.5 7.5 0 1 0 15 0 a7.5 7.5 0 1 0 -15 0zM354.61 702.35 a7.5 7.5 0 1 0 15 0 a7.5 7.5 0 1 0 -15 0zM484.52 102.35 a7.5 7.5 0 1 0 15 0 a7.5 7.5 0 1 0 -15 0zM549.47 139.85 a7.5 7.5 0 1 0 15 0 a7.5 7.5 0 1 0 -15 0zM549.47 214.85 a7.5 7.5 0 1 0 15 0 a7.5 7.5 0 1 0 -15 0zM484.52 252.35 a7.5 7.5 0 1 0 15 0 a7.5 7.5 0 1 0 -15 0zM614.42 102.35 a7.5 7.5 0 1 0 15 0 a7.5 7.5 0 1 0 -15 0zM679.38 139.85 a7.5 7.5 0 1 0 15 0 a7.5 7.5 0 1 0 -15 0zM679.38 214.85 a7.5 7.5 0 1 0 15 0 a7.5 7.5 0 1 0 -15 0zM614.42 252.35 a7.5 7.5 0 1 0 15 0 a7.5 7.5 0 1 0 -15 0zM614.42 327.35 a7.5 7.5 0 1 0 15 0 a7.5 7.5 0 1 0 -15 0zM679.38 364.85 a7.5 7.5 0 1 0 15 0 a7.5 7.5 0 1 0 -15 0zM679.38 439.85 a7.5 7.5 0 1 0 15 0 a7.5 7.5 0 1 0 -15 0zM614.42 477.35 a7.5 7.5 0 1 0 15 0 a7.5 7.5 0 1 0 -15 0zM549.47 439.85 a7.5 7.5 0 1 0 15 0 a7.5 7.5 0 1 0 -15 0zM549.47 364.85 a7.5 7.5 0 1 0 15 0 a7.5 7.5 0 1 0 -15 0zM744.33 102.35 a7.5 7.5 0 1 0 15 0 a7.5 7.5 0 1 0 -15 0zM809.29 139.85 a7.5 7.5 0 1 0 15 0 a7.5 7.5 0 1 0 -15 0zM809.29 214.85 a7.5 7.5 0 1 0 15 0 a7.5 7.5 0 1 0 -15 0zM744.33 252.35 a7.5 7.5 0 1 0 15 0 a7.5 7.5 0 1 0 -15 0zM744.33 327.35 a7.5 7.5 0 1 0 15 0 a7.5 7.5 0 1 0 -15 0zM809.29 364.85 a7.5 7.5 0 1 0 15 0 a7.5 7.5 0 1 0 -15 0zM809.29 439.85 a7.5 7.5 0 1 0 15 0 a7.5 7.5 0 1 0 -15 0zM744.33 477.35 a7.5 7.5 0 1 0 15 0 a7.5 7.5 0 1 0 -15 0zM744.33 552.35 a7.5 7.5 0 1 0 15 0 a7.5 7.5 0 1 0 -15 0zM809.29 589.85 a7.5 7.5 0 1 0 15 0 a7.5 7.5 0 1 0 -15 0zM809.29 664.85 a7.5 7.5 0 1 0 15 0 a7.5 7.5 0 1 0 -15 0zM744.33 702.35 a7.5 7.5 0 1 0 15 0 a7.5 7.5 0 1 0 -15 0zM679.38 664.85 a7.5 7.5 0 1 0 15 0 a7.5 7.5 0 1 0 -15 0zM679.38 589.85 a7.5 7.5 0 1 0 15 0 a7.5 7.5 0 1 0 -15 0zM809.28 -10.15 a7.5 7.5 0 1 0 15 0 a7.5 7.5 0 1 0 -15 0zM874.24 27.35 a7.5 7.5 0 1 0 15 0 a7.5 7.5 0 1 0 -15 0zM874.24 102.35 a7.5 7.5 0 1 0 15 0 a7.5 7.5 0 1 0 -15 0zM809.28 139.85 a7.5 7.5 0 1 0 15 0 a7.5 7.5 0 1 0 -15 0zM744.33 27.35 a7.5 7.5 0 1 0 15 0 a7.5 7.5 0 1 0 -15 0zM939.19 139.85 a7.5 7.5 0 1 0 15 0 a7.5 7.5 0 1 0 -15 0zM939.19 214.85 a7.5 7.5 0 1 0 15 0 a7.5 7.5 0 1 0 -15 0zM874.24 252.35 a7.5 7.5 0 1 0 15 0 a7.5 7.5 0 1 0 -15 0zM809.28 214.85 a7.5 7.5 0 1 0 15 0 a7.5 7.5 0 1 0 -15 0zM939.19 -10.15 a7.5 7.5 0 1 0 15 0 a7.5 7.5 0 1 0 -15 0zM1004.15 27.35 a7.5 7.5 0 1 0 15 0 a7.5 7.5 0 1 0 -15 0zM1004.15 102.35 a7.5 7.5 0 1 0 15 0 a7.5 7.5 0 1 0 -15 0zM1199.01 214.85 a7.5 7.5 0 1 0 15 0 a7.5 7.5 0 1 0 -15 0zM1263.96 252.35 a7.5 7.5 0 1 0 15 0 a7.5 7.5 0 1 0 -15 0zM1263.96 327.35 a7.5 7.5 0 1 0 15 0 a7.5 7.5 0 1 0 -15 0zM1199.01 364.85 a7.5 7.5 0 1 0 15 0 a7.5 7.5 0 1 0 -15 0zM1134.05 327.35 a7.5 7.5 0 1 0 15 0 a7.5 7.5 0 1 0 -15 0zM1134.05 252.35 a7.5 7.5 0 1 0 15 0 a7.5 7.5 0 1 0 -15 0zM1199.01 439.85 a7.5 7.5 0 1 0 15 0 a7.5 7.5 0 1 0 -15 0zM1263.96 477.35 a7.5 7.5 0 1 0 15 0 a7.5 7.5 0 1 0 -15 0zM1263.96 552.35 a7.5 7.5 0 1 0 15 0 a7.5 7.5 0 1 0 -15 0zM1199.01 589.85 a7.5 7.5 0 1 0 15 0 a7.5 7.5 0 1 0 -15 0zM1134.05 552.35 a7.5 7.5 0 1 0 15 0 a7.5 7.5 0 1 0 -15 0zM1134.05 477.35 a7.5 7.5 0 1 0 15 0 a7.5 7.5 0 1 0 -15 0zM1328.91 589.85 a7.5 7.5 0 1 0 15 0 a7.5 7.5 0 1 0 -15 0zM1328.91 664.85 a7.5 7.5 0 1 0 15 0 a7.5 7.5 0 1 0 -15 0zM1263.96 702.35 a7.5 7.5 0 1 0 15 0 a7.5 7.5 0 1 0 -15 0zM1199.01 664.85 a7.5 7.5 0 1 0 15 0 a7.5 7.5 0 1 0 -15 0zM1328.91 -10.15 a7.5 7.5 0 1 0 15 0 a7.5 7.5 0 1 0 -15 0zM1393.87 27.35 a7.5 7.5 0 1 0 15 0 a7.5 7.5 0 1 0 -15 0zM1393.87 102.35 a7.5 7.5 0 1 0 15 0 a7.5 7.5 0 1 0 -15 0zM1328.91 139.85 a7.5 7.5 0 1 0 15 0 a7.5 7.5 0 1 0 -15 0zM1263.96 102.35 a7.5 7.5 0 1 0 15 0 a7.5 7.5 0 1 0 -15 0zM1263.96 27.35 a7.5 7.5 0 1 0 15 0 a7.5 7.5 0 1 0 -15 0zM1458.82 139.85 a7.5 7.5 0 1 0 15 0 a7.5 7.5 0 1 0 -15 0zM1458.82 214.85 a7.5 7.5 0 1 0 15 0 a7.5 7.5 0 1 0 -15 0zM1393.87 252.35 a7.5 7.5 0 1 0 15 0 a7.5 7.5 0 1 0 -15 0zM1328.91 214.85 a7.5 7.5 0 1 0 15 0 a7.5 7.5 0 1 0 -15 0zM1458.82 -10.15 a7.5 7.5 0 1 0 15 0 a7.5 7.5 0 1 0 -15 0zM1523.78 27.35 a7.5 7.5 0 1 0 15 0 a7.5 7.5 0 1 0 -15 0zM1523.78 102.35 a7.5 7.5 0 1 0 15 0 a7.5 7.5 0 1 0 -15 0zM1523.78 552.35 a7.5 7.5 0 1 0 15 0 a7.5 7.5 0 1 0 -15 0zM1588.73 589.85 a7.5 7.5 0 1 0 15 0 a7.5 7.5 0 1 0 -15 0zM1588.73 664.85 a7.5 7.5 0 1 0 15 0 a7.5 7.5 0 1 0 -15 0zM1523.78 702.35 a7.5 7.5 0 1 0 15 0 a7.5 7.5 0 1 0 -15 0zM1458.82 664.85 a7.5 7.5 0 1 0 15 0 a7.5 7.5 0 1 0 -15 0zM1458.82 589.85 a7.5 7.5 0 1 0 15 0 a7.5 7.5 0 1 0 -15 0z" fill="#03305d"></path><path d="M10.12 -16.85L53.42 8.15L53.42 58.15L10.12 83.15L-33.18 58.15L-33.18 8.15zM10.12 283.15L53.42 308.15L53.42 358.15L10.12 383.15L-33.18 358.15L-33.18 308.15zM53.42 358.15L96.73 383.15L96.73 433.15L53.42 458.15L10.12 433.15L10.12 383.15zM10.12 433.15L53.42 458.15L53.42 508.15L10.12 533.15L-33.18 508.15L-33.18 458.15zM96.73 433.15L140.03 458.15L140.03 508.15L96.73 533.15L53.42 508.15L53.42 458.15zM226.63 358.15L269.94 383.15L269.94 433.15L226.63 458.15L183.33 433.15L183.33 383.15zM183.33 433.15L226.63 458.15L226.63 508.15L183.33 533.15L140.03 508.15L140.03 458.15zM399.84 58.15L443.15 83.15L443.15 133.15L399.84 158.15L356.54 133.15L356.54 83.15zM399.84 358.15L443.15 383.15L443.15 433.15L399.84 458.15L356.54 433.15L356.54 383.15zM399.84 508.15L443.15 533.15L443.15 583.15L399.84 608.15L356.54 583.15L356.54 533.15zM616.36 283.15L659.66 308.15L659.66 358.15L616.36 383.15L573.05 358.15L573.05 308.15zM616.36 433.15L659.66 458.15L659.66 508.15L616.36 533.15L573.05 508.15L573.05 458.15zM789.57 133.15L832.87 158.15L832.87 208.15L789.57 233.15L746.26 208.15L746.26 158.15zM789.57 433.15L832.87 458.15L832.87 508.15L789.57 533.15L746.26 508.15L746.26 458.15zM919.47 58.15L962.78 83.15L962.78 133.15L919.47 158.15L876.17 133.15L876.17 83.15zM1179.29 58.15L1222.59 83.15L1222.59 133.15L1179.29 158.15L1135.98 133.15L1135.98 83.15zM1439.1 358.15L1482.4 383.15L1482.4 433.15L1439.1 458.15L1395.8 433.15L1395.8 383.15z" stroke="rgba(6, 80, 156, 0.93)" stroke-width="2"></path></g><defs><mask id="SvgjsMask1003"><rect width="1440" height="559" fill="#ffffff"></rect></mask></defs></svg>