<svg xmlns="http://www.w3.org/2000/svg" viewBox="0 0 100 100" width="500" height="500" class="illustration"><defs><style>.cls-1,.cls-2{fill:#f0457d;}.cls-1,.cls-3,.cls-4,.cls-5,.cls-6{stroke:#231f20;stroke-width:1.5px;}.cls-1,.cls-3,.cls-4,.cls-5{stroke-miterlimit:10;}.cls-3{fill:none;}.cls-4,.cls-6{fill:#0099f5;}.cls-5{fill:#ffd44d;}.cls-6{stroke-linejoin:bevel;}</style></defs><g id="Layer_2" data-name="Layer 2"><path class="cls-1" d="M15,72.41H54.1V59.22a10.61,10.61,0,0,0-1.53-5.54.13.13,0,0,1,0,0,10.77,10.77,0,0,0-7.28-5,10,10,0,0,0-1.89-.17H25.71A10.71,10.71,0,0,0,15,59.22v4.17"></path><circle class="cls-2" cx="34.55" cy="36.77" r="9.18"></circle><circle class="cls-3" cx="34.55" cy="36.77" r="9.18"></circle><line class="cls-4" x1="23.25" y1="62" x2="23.25" y2="72.06"></line><line class="cls-4" x1="45.85" y1="62" x2="45.85" y2="72.06"></line><line class="cls-5" x1="62.11" y1="33.51" x2="43.44" y2="33.51"></line><line class="cls-5" x1="62.11" y1="50.04" x2="48.68" y2="50.04"></line><line class="cls-5" x1="62.11" y1="66.56" x2="54.1" y2="66.56"></line><circle class="cls-5" cx="62.11" cy="33.51" r="4.36"></circle><circle class="cls-5" cx="62.11" cy="50.04" r="4.36"></circle><circle class="cls-5" cx="62.11" cy="66.56" r="4.36"></circle><line class="cls-5" x1="68.94" y1="30.03" x2="74.04" y2="30.03"></line><line class="cls-5" x1="68.94" y1="33.51" x2="85" y2="33.51"></line><line class="cls-5" x1="68.94" y1="37" x2="79.91" y2="37"></line><line class="cls-5" x1="68.94" y1="46.55" x2="79.91" y2="46.55"></line><line class="cls-5" x1="77.36" y1="50.04" x2="85" y2="50.04"></line><line class="cls-5" x1="68.94" y1="50.04" x2="74.42" y2="50.04"></line><line class="cls-5" x1="68.94" y1="53.52" x2="81.74" y2="53.52"></line><line class="cls-5" x1="74.42" y1="63.08" x2="79.91" y2="63.08"></line><line class="cls-5" x1="68.94" y1="63.08" x2="71.68" y2="63.08"></line><line class="cls-5" x1="77.36" y1="66.56" x2="85" y2="66.56"></line><line class="cls-5" x1="68.94" y1="66.56" x2="74.42" y2="66.56"></line><line class="cls-5" x1="68.94" y1="70.04" x2="81.74" y2="70.04"></line><path class="cls-6" d="M41.27,48.7l-4.63,4.63a2.81,2.81,0,0,1-4,0L28,48.7Z"></path></g></svg>